<svg version="1.1" id="Uploaded to svgrepo.com" xmlns="http://www.w3.org/2000/svg" xmlns:xlink="http://www.w3.org/1999/xlink" x="0px" y="0px"
	 width="32px" height="32px" viewBox="0 0 32 32" style="enable-background:new 0 0 32 32;" xml:space="preserve">
<style type="text/css">
	.pictogram_drie{fill:#F27261;}
	.pictogram_vijf{fill:#01A59C;}
	.pictogram_zes{fill:#0C6667;}
	.st0{fill:#F8AD89;}
	.st1{fill:#E54D2E;}
	.st2{fill:#F4D6B0;}
	.st3{fill:none;}
	.st4{clip-path:url(#SVGID_2_);fill:#01A59C;}
	.st5{clip-path:url(#SVGID_2_);fill:none;}
	.st6{clip-path:url(#SVGID_2_);fill:#0C6667;}
	.st7{fill:#0C6667;}
</style>
<g>
	<path class="pictogram_vijf" d="M32,29c0,1.65-1.35,3-3,3H3c-1.65,0-3-1.35-3-3V3c0-1.65,1.35-3,3-3h26c1.65,0,3,1.35,3,3V29z"/>
	<path class="pictogram_drie" d="M16.1,2h-0.2C10.432,2,6,6.432,6,11.9v12.345c0.129,0.014,0.257,0.029,0.398,0.029
		c3.197,0,3.197-3.69,6.394-3.69c3.2,0,3.2,3.69,6.4,3.69c3.202,0,3.202-3.69,6.404-3.69c0.143,0,0.273,0.016,0.404,0.03V11.9
		C26,6.432,21.568,2,16.1,2z M13.934,12.567c-0.47,0-0.85-0.381-0.85-0.85c0-0.598-0.486-1.083-1.084-1.083
		s-1.084,0.486-1.084,1.083c0,0.469-0.38,0.85-0.85,0.85s-0.85-0.381-0.85-0.85c0-1.535,1.248-2.784,2.783-2.784
		s2.783,1.249,2.783,2.784C14.783,12.186,14.403,12.567,13.934,12.567z M21.5,12.567c-0.47,0-0.85-0.381-0.85-0.85
		c0-0.598-0.486-1.083-1.084-1.083s-1.084,0.486-1.084,1.083c0,0.469-0.38,0.85-0.85,0.85s-0.85-0.381-0.85-0.85
		c0-1.535,1.248-2.784,2.783-2.784s2.783,1.249,2.783,2.784C22.35,12.186,21.97,12.567,21.5,12.567z"/>
	<path class="pictogram_zes" d="M17,23.469V29.5c0,0.828-0.672,1.5-1.5,1.5S14,30.328,14,29.5v-8.698
		C15.33,21.31,15.974,22.61,17,23.469z M19.192,24.274c-0.068,0-0.127-0.011-0.192-0.014v3.24c0,0.828,0.672,1.5,1.5,1.5
		s1.5-0.672,1.5-1.5v-4.629C21.312,23.624,20.533,24.274,19.192,24.274z M9,23.088v2.162c0,0.828,0.672,1.5,1.5,1.5
		s1.5-0.672,1.5-1.5v-4.572C10.585,21.003,9.898,22.167,9,23.088z M12,8.933c-1.535,0-2.783,1.249-2.783,2.784
		c0,0.469,0.38,0.85,0.85,0.85s0.85-0.381,0.85-0.85c0-0.598,0.486-1.083,1.084-1.083s1.084,0.486,1.084,1.083
		c0,0.469,0.38,0.85,0.85,0.85s0.85-0.381,0.85-0.85C14.783,10.182,13.535,8.933,12,8.933z M19.566,8.933
		c-1.535,0-2.783,1.249-2.783,2.784c0,0.469,0.38,0.85,0.85,0.85s0.85-0.381,0.85-0.85c0-0.598,0.486-1.083,1.084-1.083
		s1.084,0.486,1.084,1.083c0,0.469,0.38,0.85,0.85,0.85s0.85-0.381,0.85-0.85C22.35,10.182,21.102,8.933,19.566,8.933z"/>
</g>
</svg>