<svg version="1.1" id="Uploaded to svgrepo.com" xmlns="http://www.w3.org/2000/svg" xmlns:xlink="http://www.w3.org/1999/xlink" x="0px" y="0px"
	 width="32px" height="32px" viewBox="0 0 32 32" style="enable-background:new 0 0 32 32;" xml:space="preserve">
<style type="text/css">
	.pictogram_een{fill:#F4D6B0;}
	.pictogram_twee{fill:#F8AD89;}
	.pictogram_drie{fill:#F27261;}
	.pictogram_vijf{fill:#01A59C;}
	.pictogram_zes{fill:#0C6667;}
	.st0{fill:#E54D2E;}
	.st1{fill:none;}
	.st2{fill:#F8AD89;}
	.st3{clip-path:url(#SVGID_2_);fill:#01A59C;}
	.st4{clip-path:url(#SVGID_2_);fill:none;}
	.st5{clip-path:url(#SVGID_2_);fill:#0C6667;}
	.st6{fill:#0C6667;}
</style>
<g>
	<path class="pictogram_drie" d="M32,29c0,1.65-1.35,3-3,3H3c-1.65,0-3-1.35-3-3V3c0-1.65,1.35-3,3-3h26c1.65,0,3,1.35,3,3V29z"/>
	<path class="pictogram_twee" d="M4,16v-4h24v4h-6v-2H6v2H4z M28,6H4v4h24V6z"/>
	<path class="pictogram_zes" d="M29,12h-1v4h-6H6H4v-4H3c-1.65,0-3,1.35-3,3v1v13c0,1.65,1.35,3,3,3h26c1.65,0,3-1.35,3-3V16v-1
		C32,13.35,30.65,12,29,12z M27,20c0.55,0,1,0.45,1,1s-0.45,1-1,1s-1-0.45-1-1S26.45,20,27,20z M23,20c0.55,0,1,0.45,1,1
		s-0.45,1-1,1s-1-0.45-1-1S22.45,20,23,20z M21,24c0.55,0,1,0.45,1,1s-0.45,1-1,1s-1-0.45-1-1S20.45,24,21,24z M19,20
		c0.55,0,1,0.45,1,1s-0.45,1-1,1s-1-0.45-1-1S18.45,20,19,20z M17,24c0.55,0,1,0.45,1,1s-0.45,1-1,1s-1-0.45-1-1S16.45,24,17,24z
		 M15,20c0.55,0,1,0.45,1,1s-0.45,1-1,1s-1-0.45-1-1S14.45,20,15,20z M13,24c0.55,0,1,0.45,1,1s-0.45,1-1,1s-1-0.45-1-1
		S12.45,24,13,24z M11,20c0.55,0,1,0.45,1,1s-0.45,1-1,1s-1-0.45-1-1S10.45,20,11,20z M9,24c0.55,0,1,0.45,1,1s-0.45,1-1,1
		s-1-0.45-1-1S8.45,24,9,24z M7,20c0.55,0,1,0.45,1,1s-0.45,1-1,1s-1-0.45-1-1S6.45,20,7,20z M3,20c0.55,0,1,0.45,1,1s-0.45,1-1,1
		s-1-0.45-1-1S2.45,20,3,20z M3,30c-0.55,0-1-0.45-1-1s0.45-1,1-1s1,0.45,1,1S3.55,30,3,30z M5,26c-0.55,0-1-0.45-1-1s0.45-1,1-1
		s1,0.45,1,1S5.55,26,5,26z M23,30H7c-0.55,0-1-0.45-1-1s0.45-1,1-1h16c0.55,0,1,0.45,1,1S23.55,30,23,30z M25,26
		c-0.55,0-1-0.45-1-1s0.45-1,1-1s1,0.45,1,1S25.55,26,25,26z M27,30c-0.55,0-1-0.45-1-1s0.45-1,1-1s1,0.45,1,1S27.55,30,27,30z
		 M29,26c-0.55,0-1-0.45-1-1s0.45-1,1-1s1,0.45,1,1S29.55,26,29,26z M28,12H4v-2h24V12z"/>
	<rect x="6" y="14" class="pictogram_vijf" width="16" height="2"/>
	<path class="pictogram_een" d="M2,21c0-0.55,0.45-1,1-1s1,0.45,1,1s-0.45,1-1,1S2,21.55,2,21z M7,22c0.55,0,1-0.45,1-1s-0.45-1-1-1
		s-1,0.45-1,1S6.45,22,7,22z M11,22c0.55,0,1-0.45,1-1s-0.45-1-1-1s-1,0.45-1,1S10.45,22,11,22z M15,22c0.55,0,1-0.45,1-1
		s-0.45-1-1-1s-1,0.45-1,1S14.45,22,15,22z M19,22c0.55,0,1-0.45,1-1s-0.45-1-1-1s-1,0.45-1,1S18.45,22,19,22z M23,22
		c0.55,0,1-0.45,1-1s-0.45-1-1-1s-1,0.45-1,1S22.45,22,23,22z M27,22c0.55,0,1-0.45,1-1s-0.45-1-1-1s-1,0.45-1,1S26.45,22,27,22z
		 M5,24c-0.55,0-1,0.45-1,1s0.45,1,1,1s1-0.45,1-1S5.55,24,5,24z M9,26c0.55,0,1-0.45,1-1s-0.45-1-1-1s-1,0.45-1,1S8.45,26,9,26z
		 M13,26c0.55,0,1-0.45,1-1s-0.45-1-1-1s-1,0.45-1,1S12.45,26,13,26z M17,26c0.55,0,1-0.45,1-1s-0.45-1-1-1s-1,0.45-1,1
		S16.45,26,17,26z M21,26c0.55,0,1-0.45,1-1s-0.45-1-1-1s-1,0.45-1,1S20.45,26,21,26z M25,24c-0.55,0-1,0.45-1,1s0.45,1,1,1
		s1-0.45,1-1S25.55,24,25,24z M29,24c-0.55,0-1,0.45-1,1s0.45,1,1,1s1-0.45,1-1S29.55,24,29,24z M3,28c-0.55,0-1,0.45-1,1
		s0.45,1,1,1s1-0.45,1-1S3.55,28,3,28z M23,28H7c-0.55,0-1,0.45-1,1s0.45,1,1,1h16c0.55,0,1-0.45,1-1S23.55,28,23,28z M27,28
		c-0.55,0-1,0.45-1,1s0.45,1,1,1s1-0.45,1-1S27.55,28,27,28z M28,5c0-1.65-1.35-3-3-3H7C5.35,2,4,3.35,4,5v1h24V5z"/>
</g>
</svg>