<svg version="1.1" id="Uploaded to svgrepo.com" xmlns="http://www.w3.org/2000/svg" xmlns:xlink="http://www.w3.org/1999/xlink" x="0px" y="0px"
	 width="32px" height="32px" viewBox="0 0 32 32" style="enable-background:new 0 0 32 32;" xml:space="preserve">
<style type="text/css">
	.pictogram_zes{fill:#0C6667;}
	.pictogram_vijf{fill:#01A59C;}
	.pictogram_twee{fill:#F8AD89;}
	.pictogram_een{fill:#F4D6B0;}
	.st0{fill:none;}
	.st1{fill:#E54D2E;}
	.st2{fill:#F27261;}
</style>
<g>
	<path class="pictogram_zes" d="M32,29c0,1.65-1.35,3-3,3H3c-1.65,0-3-1.35-3-3V3c0-1.65,1.35-3,3-3h26c1.65,0,3,1.35,3,3V29z"/>
	<path class="pictogram_een" d="M28.125,9h-16.25C10.844,9,10,9.844,10,10.875v16.25C10,28.156,10.844,29,11.875,29h16.25
		C29.156,29,30,28.156,30,27.125v-16.25C30,9.844,29.156,9,28.125,9z M4,19v-2h6v-2H4v-2h6v-2H4V9h7.875H14h4h2h2V3.875
		C22,2.844,21.156,2,20.125,2H3.875C2.844,2,2,2.844,2,3.875v16.25C2,21.156,2.844,22,3.875,22H10v-3H4z M4,4h16v2H4V4z"/>
	<path class="pictogram_twee" d="M20,11V9h-8.125C10.844,9,10,9.844,10,10.875v16.25C10,28.156,10.844,29,11.875,29H20v-3h-8v-2h8
		v-2h-8v-2h8v-2h-8v-2h8v-3h-8v-2H20z"/>
	<path class="pictogram_zes" d="M20,6H4V4h16V6z M12,11v2h16v-2H12z"/>
	<path class="pictogram_vijf" d="M10,10.875V11H4V9h7.875C10.844,9,10,9.844,10,10.875z M4,13v2h6v-2H4z M4,17v2h6v-2H4z M26,16v2h2
		v-2H26z M12,16v2h10v-2H12z M26,20v2h2v-2H26z M12,20v2h10v-2H12z M26,24v2h2v-2H26z M12,24v2h10v-2H12z"/>
</g>
</svg>