<!-- Uploaded to: SVG Repo, www.svgrepo.com, Generator: SVG Repo Mixer Tools -->
<svg width="800px" height="800px" viewBox="0 0 24 24" fill="none" xmlns="http://www.w3.org/2000/svg">
<path d="M8.96685 17L3 17" stroke="#000000" stroke-width="2" stroke-linecap="round"/>
<path d="M21 7H15" stroke="#000000" stroke-width="2" stroke-linecap="round"/>
<path d="M3.01 7L3 7" stroke="#000000" stroke-width="2" stroke-linecap="round"/>
<path d="M21.01 17L21 17" stroke="#000000" stroke-width="2" stroke-linecap="round"/>
<path d="M14.9337 14C16.5814 14 17.9172 15.3431 17.9172 17C17.9172 18.6569 16.5814 20 14.9337 20C13.286 20 11.9503 18.6569 11.9503 17C11.9503 15.3431 13.286 14 14.9337 14Z" stroke="#000000" stroke-width="2"/>
<path d="M8.96682 4C10.6145 4 11.9502 5.34315 11.9502 7C11.9502 8.65685 10.6145 10 8.96682 10C7.31912 10 5.9834 8.65685 5.9834 7C5.9834 5.34315 7.31912 4 8.96682 4Z" stroke="#000000" stroke-width="2"/>
</svg>