<?xml version="1.0" encoding="iso-8859-1"?>
<!-- Generator: Adobe Illustrator 19.0.0, SVG Export Plug-In . SVG Version: 6.00 Build 0)  -->
<svg version="1.1" id="Layer_1" xmlns="http://www.w3.org/2000/svg" xmlns:xlink="http://www.w3.org/1999/xlink" x="0px" y="0px"
	 viewBox="0 0 512 512" style="enable-background:new 0 0 512 512;" xml:space="preserve">
<g>
	<polygon style="fill:#FFC107;" points="356.856,244.868 356.856,184.9 155.144,184.9 155.144,244.868 193.306,244.868 
		193.306,441.128 155.144,441.128 155.144,501.097 356.856,501.097 356.856,441.128 318.694,441.128 318.694,244.868 	"/>
	<circle style="fill:#FFC107;" cx="255.999" cy="76.323" r="65.42"/>
</g>
<g>
	<path style="fill:#231F20;" d="M356.856,255.772c6.021,0,10.903-4.883,10.903-10.903V184.9c0-6.021-4.883-10.903-10.903-10.903
		H155.144c-6.021,0-10.903,4.883-10.903,10.903v59.968c0,6.021,4.883,10.903,10.903,10.903h27.258v174.453h-27.258
		c-6.021,0-10.903,4.883-10.903,10.903v59.968c0,6.021,4.883,10.903,10.903,10.903h201.712c6.021,0,10.903-4.883,10.903-10.903
		v-59.968c0-6.021-4.883-10.903-10.903-10.903h-27.258V255.772H356.856z M345.953,452.032v38.162H166.047v-38.162h65.928
		c6.021,0,10.903-4.883,10.903-10.903c0-6.021-4.883-10.903-10.903-10.903h-27.766V244.868c0-6.021-4.883-10.903-10.903-10.903
		h-27.258v-38.162h179.905v38.162h-59.46c-6.021,0-10.903,4.883-10.903,10.903s4.883,10.903,10.903,10.903h21.299v185.357
		c0,6.021,4.883,10.903,10.903,10.903H345.953z"/>
	<path style="fill:#231F20;" d="M256,152.647c42.085,0,76.323-34.239,76.323-76.323S298.085,0,256,0s-76.323,34.239-76.323,76.323
		S213.915,152.647,256,152.647z M256,21.807c30.06,0,54.517,24.456,54.517,54.517S286.061,130.84,256,130.84
		s-54.517-24.456-54.517-54.517S225.938,21.807,256,21.807z"/>
	<path style="fill:#231F20;" d="M275.578,430.225h-2.61c-6.021,0-10.903,4.883-10.903,10.903c0,6.021,4.883,10.903,10.903,10.903
		h2.61c6.021,0,10.903-4.883,10.903-10.903C286.481,435.107,281.599,430.225,275.578,430.225z"/>
	<path style="fill:#231F20;" d="M248.32,233.965h-1.88c-6.021,0-10.903,4.883-10.903,10.903s4.883,10.903,10.903,10.903h1.88
		c6.021,0,10.903-4.883,10.903-10.903S254.341,233.965,248.32,233.965z"/>
</g>
<g>
</g>
<g>
</g>
<g>
</g>
<g>
</g>
<g>
</g>
<g>
</g>
<g>
</g>
<g>
</g>
<g>
</g>
<g>
</g>
<g>
</g>
<g>
</g>
<g>
</g>
<g>
</g>
<g>
</g>
</svg>
