<svg version="1.1" id="Uploaded to svgrepo.com" xmlns="http://www.w3.org/2000/svg" xmlns:xlink="http://www.w3.org/1999/xlink" x="0px" y="0px"
	 width="32px" height="32px" viewBox="0 0 32 32" style="enable-background:new 0 0 32 32;" xml:space="preserve">
<style type="text/css">
	.pictogram_een{fill:#F4D6B0;}
	.pictogram_twee{fill:#F8AD89;}
	.pictogram_drie{fill:#F27261;}
	.pictogram_vijf{fill:#01A59C;}
	.pictogram_zes{fill:#0C6667;}
	.st0{fill:#E54D2E;}
	.st1{fill:none;}
	.st2{fill:#F8AD89;}
	.st3{clip-path:url(#SVGID_2_);fill:#01A59C;}
	.st4{clip-path:url(#SVGID_2_);fill:none;}
	.st5{clip-path:url(#SVGID_2_);fill:#0C6667;}
	.st6{fill:#0C6667;}
</style>
<g>
	<path class="pictogram_drie" d="M32,29c0,1.65-1.35,3-3,3H3c-1.65,0-3-1.35-3-3V3c0-1.65,1.35-3,3-3h26c1.65,0,3,1.35,3,3V29z"/>
	<path class="pictogram_zes" d="M26.771,24.721c-0.591-1.988-1.91-3.634-3.626-4.601c-1.138,1.092-1.868,2.654-3.954,2.654
		c-3.19,0-3.237-3.69-6.4-3.69c-3.159,0-3.207,3.69-6.394,3.69c-0.406,0-0.759-0.06-1.075-0.164C4.49,23.882,4,25.423,4,27.085
		v0.016C4,28.953,4.61,30.653,5.623,32h19.848c0.567-0.75,1.022-1.598,1.3-2.535H28v-4.744H26.771z M10.161,28.019
		c-1.185,0-2.146-0.961-2.146-2.146s0.961-2.146,2.146-2.146c1.185,0,2.146,0.961,2.146,2.146S11.346,28.019,10.161,28.019z
		 M17.854,28.019c-1.185,0-2.146-0.961-2.146-2.146s0.961-2.146,2.146-2.146c1.185,0,2.146,0.961,2.146,2.146
		S19.039,28.019,17.854,28.019z"/>
	<path class="pictogram_vijf" d="M32,22.774V29c0,1.65-1.35,3-3,3h-3.529c0.567-0.75,1.022-1.598,1.3-2.535H28v-4.744h-1.229
		c-0.591-1.988-1.91-3.634-3.626-4.601c0.609-0.584,1.334-1.036,2.45-1.036C28.798,19.083,28.798,22.774,32,22.774z M4,27.085
		c0-1.662,0.49-3.203,1.323-4.475C3.148,21.896,2.793,19.083,0,19.083V29c0,1.65,1.35,3,3,3h2.623C4.61,30.653,4,28.953,4,27.101
		V27.085z M17.854,23.728c-1.185,0-2.146,0.961-2.146,2.146s0.961,2.146,2.146,2.146c1.185,0,2.146-0.961,2.146-2.146
		S19.039,23.728,17.854,23.728z M10.161,23.728c-1.185,0-2.146,0.961-2.146,2.146s0.961,2.146,2.146,2.146
		c1.185,0,2.146-0.961,2.146-2.146S11.346,23.728,10.161,23.728z"/>
	<path class="pictogram_een" d="M13.617,19.186h5.998c1.278,0,2.479,0.34,3.531,0.934c-1.138,1.092-1.868,2.654-3.954,2.654
		C16.296,22.774,16.013,19.761,13.617,19.186z M9.515,11H5.5C4.671,11,4,11.672,4,12.5S4.671,14,5.5,14h4.015
		c0.276,0,0.5,0.225,0.5,0.5v4.856c-1.938,0.412-3.609,1.598-4.693,3.254c0.316,0.104,0.669,0.164,1.075,0.164
		c1.872,0,2.652-1.26,3.617-2.306v0.003c0.782-0.849,1.59-1.387,2.777-1.387c0.079,0,0.133,0.012,0.208,0.017v-4.6
		C13,12.57,11.445,11,9.515,11z"/>
	<circle class="pictogram_twee" cx="5.5" cy="12.5" r="1.5"/>
</g>
</svg>