<svg version="1.1" id="Uploaded to svgrepo.com" xmlns="http://www.w3.org/2000/svg" xmlns:xlink="http://www.w3.org/1999/xlink" x="0px" y="0px"
	 width="32px" height="32px" viewBox="0 0 32 32" style="enable-background:new 0 0 32 32;" xml:space="preserve">
<style type="text/css">
	.pictogram_een{fill:#F4D6B0;}
	.pictogram_twee{fill:#F8AD89;}
	.pictogram_drie{fill:#F27261;}
	.pictogram_vijf{fill:#01A59C;}
	.pictogram_zes{fill:#0C6667;}
	.st0{fill:#E54D2E;}
	.st1{fill:none;}
	.st2{clip-path:url(#SVGID_2_);fill:#F27261;}
	.st3{clip-path:url(#SVGID_2_);fill:none;}
	.st4{clip-path:url(#SVGID_6_);fill:#F4D6B0;}
	.st5{clip-path:url(#SVGID_8_);fill:#F27261;}
	.st6{clip-path:url(#SVGID_8_);fill:none;}
	.st7{clip-path:url(#SVGID_10_);fill:#F27261;}
	.st8{clip-path:url(#SVGID_10_);fill:none;}
	.st9{fill:#F4D6B0;}
</style>
<g>
	<path class="pictogram_twee" d="M32,29c0,1.65-1.35,3-3,3H3c-1.65,0-3-1.35-3-3V3c0-1.65,1.35-3,3-3h26c1.65,0,3,1.35,3,3V29z"/>
	<path class="pictogram_een" d="M3.67,16.259c-1.56,1.56-1.56,4.097,0,5.657l1.414,1.414c1.56,1.56,4.097,1.56,5.657,0l5.657-5.657
		l-7.071-7.071L3.67,16.259z"/>
	<path class="pictogram_drie" d="M22.054,12.017c1.56-1.56,1.56-4.097,0-5.657L20.64,4.946c-1.56-1.56-4.097-1.56-5.657,0
		l-5.657,5.657l7.071,7.071L22.054,12.017z"/>
	<circle class="pictogram_zes" cx="20" cy="20" r="8"/>
	<path class="pictogram_vijf" d="M24,18h-2v-2c0-1.105-0.895-2-2-2s-2,0.895-2,2v2h-2c-1.105,0-2,0.895-2,2s0.895,2,2,2h2v2
		c0,1.105,0.895,2,2,2s2-0.895,2-2v-2h2c1.105,0,2-0.895,2-2S25.105,18,24,18z"/>
</g>
</svg>