<?xml version="1.0" encoding="utf-8"?>
<!-- Uploaded to: SVG Repo, www.svgrepo.com, Generator: SVG Repo Mixer Tools -->
<svg version="1.1" id="Uploaded to svgrepo.com" xmlns="http://www.w3.org/2000/svg" xmlns:xlink="http://www.w3.org/1999/xlink" 
	 width="800px" height="800px" viewBox="0 0 32 32" xml:space="preserve">
<style type="text/css">
	.pictogram_zes{fill:#0C6667;}
	.pictogram_vijf{fill:#01A59C;}
	.pictogram_twee{fill:#F8AD89;}
	.pictogram_een{fill:#F4D6B0;}
	.pictogram_drie{fill:#F27261;}
	.st0{fill:none;}
	.st1{fill:#E54D2E;}
</style>
<g>
	<path class="pictogram_zes" d="M32,29c0,1.65-1.35,3-3,3H3c-1.65,0-3-1.35-3-3V3c0-1.65,1.35-3,3-3h26c1.65,0,3,1.35,3,3V29z"/>
	<path class="pictogram_vijf" d="M8,16H0v13c0,1.65,1.35,3,3,3h13V16H8z"/>
	<polygon class="pictogram_drie" points="15.877,6.083 15.09,7.839 16.664,7.839 	"/>
	<path class="pictogram_drie" d="M16,16h8V0H8v16H16z M11.271,10.737l3.539-7.869c0.187-0.394,0.592-0.632,1.062-0.632
		c0.472,0,0.88,0.237,1.065,0.618l3.545,7.881c0.153,0.335,0.131,0.701-0.063,1.003c-0.213,0.332-0.615,0.547-1.024,0.547
		c-0.441,0-0.821-0.242-1.018-0.646l-0.712-1.576h-3.576l-0.706,1.564c-0.187,0.394-0.556,0.623-0.99,0.623
		c-0.421,0-0.834-0.217-1.051-0.552C11.153,11.408,11.128,11.059,11.271,10.737z"/>
	<path class="pictogram_twee" d="M24,16h-8v16h13c1.65,0,3-1.35,3-3V16H24z"/>
	<path class="pictogram_een" d="M12.393,12.25c0.435,0,0.804-0.229,0.99-0.623l0.706-1.564h3.576l0.712,1.576
		c0.196,0.404,0.576,0.646,1.018,0.646c0.409,0,0.812-0.215,1.024-0.547c0.194-0.302,0.217-0.668,0.063-1.003l-3.545-7.881
		c-0.186-0.381-0.594-0.618-1.065-0.618c-0.471,0-0.876,0.238-1.062,0.632l-3.539,7.869c-0.143,0.321-0.117,0.671,0.071,0.961
		C11.559,12.033,11.972,12.25,12.393,12.25z M15.877,6.083l0.787,1.756H15.09L15.877,6.083z M12.002,22.869
		c0.504-0.467,0.766-1.079,0.766-1.808c0-0.956-0.506-1.763-1.26-2.215c-0.64-0.387-1.39-0.441-2.135-0.441H6.59
		c-0.507,0-0.896,0.133-1.159,0.396s-0.396,0.656-0.396,1.171v6.457c0,0.502,0.128,0.892,0.382,1.156
		c0.259,0.272,0.653,0.41,1.173,0.41c2.945,0,3.917,0.076,4.918-0.341c0.508-0.224,0.917-0.573,1.216-1.041
		C13.429,25.512,13.394,23.752,12.002,22.869z M7.775,20.711c1.097,0,2.287-0.169,2.287,0.578c0,0.83-1.406,0.643-2.287,0.643
		V20.711z M7.775,25.688V24.18c1.293,0,2.633-0.219,2.633,0.736C10.408,25.907,9.042,25.688,7.775,25.688z M22.695,18.861
		c1.245-0.503,2.771-0.438,3.883,0.13c1.001,0.511,1.954,1.507,1.954,2.631c0,1.08-1.31,1.673-2.065,0.961
		c-0.492-0.467-0.485-1.02-1.111-1.451c-0.528-0.364-1.577-0.36-2.164,0.394c-0.352,0.45-0.53,1.126-0.53,2.007
		c0,0.817,0.162,1.804,0.847,2.238c0.55,0.349,1.411,0.332,1.916-0.028c1-0.72,0.457-1.954,1.876-1.954
		c0.67,0,1.256,0.527,1.256,1.256c0,0.8-0.418,1.578-0.974,2.168c-0.336,0.355-0.765,0.646-1.275,0.864
		c-1.143,0.486-3.038,0.467-4.271-0.274c-0.348-0.209-0.67-0.485-0.958-0.821c-0.494-0.587-0.868-1.335-1.05-2.196
		c-0.087-0.411-0.131-0.853-0.131-1.311c0-0.747,0.112-1.431,0.332-2.03C20.686,20.205,21.572,19.314,22.695,18.861z"/>
</g>
</svg>