<svg version="1.1" id="Uploaded to svgrepo.com" xmlns="http://www.w3.org/2000/svg" xmlns:xlink="http://www.w3.org/1999/xlink" x="0px" y="0px"
	 width="32px" height="32px" viewBox="0 0 32 32" style="enable-background:new 0 0 32 32;" xml:space="preserve">
<style type="text/css">
	.pictogram_een{fill:#F4D6B0;}
	.pictogram_twee{fill:#F8AD89;}
	.pictogram_vier{fill:#E54D2E;}
	.pictogram_vijf{fill:#01A59C;}
	.pictogram_zes{fill:#0C6667;}
	.st0{fill:#F27261;}
	.st1{fill:none;}
	.st2{clip-path:url(#SVGID_2_);fill:#F27261;}
	.st3{clip-path:url(#SVGID_2_);fill:none;}
	.st4{clip-path:url(#SVGID_6_);fill:#F4D6B0;}
	.st5{clip-path:url(#SVGID_8_);fill:#F27261;}
	.st6{clip-path:url(#SVGID_8_);fill:none;}
	.st7{clip-path:url(#SVGID_10_);fill:#F27261;}
	.st8{clip-path:url(#SVGID_10_);fill:none;}
	.st9{fill:#F4D6B0;}
</style>
<g>
	<path class="pictogram_vier" d="M32,29c0,1.65-1.35,3-3,3H3c-1.65,0-3-1.35-3-3V3c0-1.65,1.35-3,3-3h26c1.65,0,3,1.35,3,3V29z"/>
	<path class="pictogram_een" d="M16.634,17.742C15.781,17.999,14.906,18.087,14,18l-5.834,5.834l6.365,6.365
		c0.808,0.808,2.13,0.808,2.938,0l4.076-4.076L16.634,17.742L16.634,17.742z"/>
	<path class="pictogram_een" d="M30.198,17.469c0.808-0.808,0.808-2.13,0-2.937l-6.365-6.365l-2.381,2.381
		c0.216,2.233-0.659,4.304-2.21,5.711l4.495,7.67L30.198,17.469z"/>
	<path class="pictogram_zes" d="M14.666,4.394c-4.158,0-7.421,3.88-6.722,7.974c0.583,3.418,3.775,5.906,7.231,5.646
		c3.764-0.283,6.641-3.714,6.277-7.466C21.117,7.094,18.127,4.394,14.666,4.394z"/>
	<path class="pictogram_vijf" d="M25.447,26.848l-6.205-10.588c-0.184,0.167-0.377,0.325-0.579,0.472
		c-0.001,0.001-0.003,0.002-0.004,0.003c-0.608,0.441-1.288,0.786-2.025,1.008l6.225,10.622c0.279,0.477,0.78,0.742,1.295,0.742
		c0.258,0,0.52-0.066,0.758-0.206C25.627,28.481,25.866,27.562,25.447,26.848z"/>
	<path class="pictogram_twee" d="M14.666,4.394c-1.552,0-2.978,0.524-4.124,1.397l3.989-3.989c0.808-0.808,2.13-0.808,2.938,0
		l6.365,6.365l-2.381,2.381C21.117,7.094,18.208,4.394,14.666,4.394z M7.846,11.214c0-1.552,0.524-2.978,1.397-4.124l-7.442,7.442
		c-0.808,0.808-0.808,2.13,0,2.937l6.365,6.365L14,18C10.547,17.665,7.846,14.755,7.846,11.214z M14.666,15.033
		c2.106,0,3.82-1.714,3.82-3.82s-1.713-3.82-3.82-3.82s-3.82,1.713-3.82,3.82S12.56,15.033,14.666,15.033z"/>
</g>
</svg>