<?xml version="1.0" encoding="iso-8859-1"?>
<!-- Uploaded to: SVG Repo, www.svgrepo.com, Generator: SVG Repo Mixer Tools -->
<svg height="800px" width="800px" version="1.1" id="Layer_1" xmlns="http://www.w3.org/2000/svg" xmlns:xlink="http://www.w3.org/1999/xlink" 
	 viewBox="0 0 512.001 512.001" xml:space="preserve">
<g>
	<path style="fill:#C39D62;" d="M405.293,328.365c-6.824-1.694-12.787-4.114-17.72-7.191l-3.248-2.026l3.378-1.802
		c1.887-1.006,3.747-2.054,5.528-3.114l1.382-0.82l12.674,11.145L405.293,328.365z"/>
	<path style="fill:#C39D62;" d="M394.36,316.134l11.466,10.084c-7.751-1.924-13.29-4.555-17.082-6.921
		C390.546,318.334,392.425,317.284,394.36,316.134z"/>
	<path style="fill:#C39D62;" d="M106.327,325.457c7.941-9.418,14.469-20.524,19.403-33.01l1.96-4.961l2.125,4.895
		c2.85,6.569,6.425,12.9,10.62,18.817l1.206,1.7l-1.626,1.305c-5.385,4.319-13.856,7.68-21.331,10.646
		c-3.528,1.399-6.698,2.669-9.756,4.05L106.327,325.457z"/>
	<path style="fill:#C39D62;" d="M138.633,312.475c-5.086,4.079-13.323,7.364-20.763,10.316c-3.317,1.315-6.667,2.652-9.851,4.091
		c8.092-9.598,14.705-20.808,19.769-33.623C130.584,299.705,134.155,306.162,138.633,312.475z"/>
</g>
<path style="fill:#3D484A;" d="M508.939,192.136c3.053,2.243,3.794,5.993,2.356,9.509l-6.104,14.915
	c-3.494,8.546-11.355,14.617-20.499,15.833l-3.538,0.475c-8.413,8.613-19.404,14.086-24.677,16.397
	c-14.816,27.498-32.264,45.465-47.876,57.306l20.897,18.387c0.973,0.862,1.736,1.935,2.211,3.14l17.69,44.226
	c1.703,4.257-0.365,9.077-4.611,10.78c-1.017,0.409-2.056,0.597-3.085,0.597c-3.284,0-6.402-1.968-7.695-5.208l-13.312-33.258
	c-28.493-2.079-42.899-12.229-48.992-18.177c-0.453,0.177-0.886,0.344-1.283,0.51c-0.62,0.232-1.306,0.496-1.913,0.741
	c-2.598,6.778-9.464,27.984-15.59,47.654h9.177c4.577,0,8.292,3.715,8.292,8.292s-3.715,8.292-8.292,8.292h-17.69
	c-3.66,0-6.888-2.399-7.939-5.904l-21.993-73.305c-4.566,0.397-12.35,0.918-22.29,0.918c-19.305,0-46.67-1.958-74.09-10.537
	c-0.431-0.133-0.84-0.31-1.238-0.509c-5.56,7.364-13.057,15.59-22.544,24.766c-12.815,12.394-26.226,23.451-33.877,29.268
	l11.665,18.719h13.091c4.577,0,8.292,3.715,8.292,8.292s-3.715,8.292-8.292,8.292H167.5c-2.864,0-5.528-1.482-7.043-3.903
	l-29.853-47.919c-0.885-1.426-1.283-3.063-1.227-4.688c-1.813,0.741-3.615,1.459-5.383,2.167
	c-6.623,2.633-18.962,7.541-18.962,10.67v25.939c0,0.63,0.52,1.15,1.15,1.15h8.248c4.577,0,8.292,3.715,8.292,8.292
	s-3.715,8.292-8.292,8.292h-8.248c-9.774,0-17.735-7.961-17.735-17.735v-29.919c-1.979,1.404-4.002,2.775-6.092,4.058
	c-23.639,14.45-47.598,16.607-59.783,16.607c-8.536,0-15.612-4.135-18.929-11.057l-1.725-3.604
	c-3.582-7.486-2.057-16.441,3.815-22.312c3.493-3.505,8.236-5.517,13.355-5.694c45.068-1.47,52.94-26.491,63.831-61.121
	c4.157-13.2,8.447-26.844,15.247-40.433c12.715-25.419,34.773-43.209,65.565-52.862c26.082-8.171,53.934-9.221,75.273-9.221
	c40.568,0,89.735,11.399,97.552,13.268h52.076c2.532,0,7.861-5.119,12.14-9.221c7.075-6.811,15.778-15.147,27.961-19.979
	c6.149-9.597,15.348-19.625,28.262-23.516c2.51-0.753,5.241-0.289,7.342,1.283c2.112,1.558,3.35,4.035,3.35,6.655v13.644
	c24.944,6.479,34.22,26.237,34.64,27.156c0.485,1.072,0.741,2.243,0.741,3.428C503.068,185.734,508.165,191.351,508.939,192.136z
	 M489.844,210.28l4.213-10.295c-3.25-4.721-7.154-13.003-7.539-25.883c-1.869-3.129-7.518-11.068-18.829-15.335v4.356
	c0,4.577-3.715,8.292-8.292,8.292s-8.292-3.715-8.292-8.292v-21.118c-11.134,10.139-16.496,27.298-16.552,27.52
	c-1.074,3.616-4.378,5.948-7.95,5.948c-0.785,0-1.57-0.111-2.355-0.343c-2.864-0.852-4.92-3.108-5.65-5.794
	c-2.222,1.968-4.322,3.98-6.334,5.915c-7.419,7.131-14.418,13.854-23.628,13.854h-53.071c-0.663,0-1.338-0.077-1.979-0.243
	c-0.53-0.133-53.359-13.025-94.578-13.025c-46.349,0-102.549,6.015-126,52.906c-6.214,12.417-10.305,25.43-14.263,38.001
	c-10.956,34.84-22.289,70.861-79.11,72.73c-0.873,0.022-1.67,0.332-2.178,0.84c-0.896,0.897-1.129,2.267-0.576,3.405l1.726,3.617
	c0.73,1.515,3.229,1.635,3.969,1.635c18.409,0,79.773-6.114,96.645-84.759c0.111-0.475,0.253-0.929,0.42-1.359
	c-2.256-19.625,1.371-35.857,5.506-42.302c2.476-3.848,7.607-4.964,11.465-2.488c3.848,2.476,4.964,7.607,2.488,11.453
	c-3.638,5.816-10.78,44.834,17.116,78.702c2.134,2.587,2.499,6.213,0.918,9.165l-9.918,18.631l4.445,7.131
	c18.553-14.141,58.412-50.13,60.712-66.207c2.366-16.629-7.054-28.947-7.154-29.068c-2.797-3.593-2.19-8.801,1.393-11.633
	c3.571-2.819,8.746-2.256,11.598,1.305c0.574,0.719,13.985,17.823,10.569,41.738c-0.409,2.909-1.404,6.059-2.952,9.442
	c34.563,10.205,69.28,9.332,83.853,8.337c-0.188-1.226-0.1-2.476,0.254-3.67c0.044-0.122,3.847-12.738,8.679-34.752
	c0.984-4.467,5.407-7.307,9.886-6.324c4.467,0.984,7.297,5.407,6.324,9.885c-3.803,17.292-6.944,28.812-8.303,33.567l16.717,55.725
	c9.707-30.372,11.355-32.838,11.962-33.756c1.835-2.764,4.456-3.781,9.199-5.628c13.964-5.44,51.059-19.902,78.8-73.205
	c0.951-1.835,2.555-3.251,4.5-3.958c0.133-0.055,14.727-5.539,23.097-15.302c1.327-1.548,3.173-2.555,5.197-2.819l6.501-0.873
	C485.775,215.519,488.595,213.341,489.844,210.28z M405.825,326.217l-11.466-10.084c-1.935,1.15-3.813,2.2-5.617,3.162
	C392.535,321.662,398.075,324.294,405.825,326.217z M117.869,322.791c7.44-2.952,15.678-6.237,20.763-10.316
	c-4.478-6.313-8.048-12.77-10.845-19.216c-5.064,12.815-11.677,24.026-19.769,33.623
	C111.201,325.444,114.552,324.106,117.869,322.791z"/>
<g>
	<path style="fill:#C4A87C;" d="M324.212,295.783l0.178-0.624c1.192-4.169,4.385-15.774,8.27-33.434
		c0.711-3.275-1.37-6.53-4.639-7.251c-0.432-0.095-0.873-0.143-1.311-0.143c-2.832,0-5.329,2.011-5.94,4.782
		c-4.658,21.224-8.308,33.54-8.721,34.904h0.002c-0.263,0.891-0.327,1.801-0.189,2.707l0.365,2.376l-2.399,0.164
		c-5.567,0.38-11.44,0.573-17.453,0.573c-16.748,0-41.998-1.56-67.177-8.996l-2.446-0.722l1.061-2.319
		c1.466-3.204,2.399-6.175,2.773-8.83c3.283-22.977-9.559-39.365-10.108-40.051c-1.152-1.438-2.876-2.264-4.724-2.264
		c-1.381,0-2.687,0.454-3.777,1.315c-2.616,2.068-3.074,5.899-1.018,8.539c0.067,0.08,10.091,13.209,7.598,30.737
		c-2.541,17.756-46.013,55.803-61.562,67.654l-1.932,1.473l-6.404-10.277l10.517-19.756c1.166-2.177,0.9-4.813-0.671-6.719
		c-15.249-18.513-19.772-38.001-20.881-51.09c-1.258-14.848,1.347-26.593,3.597-30.191c0.893-1.388,1.186-3.013,0.841-4.598
		c-0.345-1.588-1.286-2.944-2.65-3.823c-0.985-0.631-2.121-0.966-3.285-0.966c-2.084,0-3.999,1.044-5.125,2.792
		c-3.362,5.24-7.515,20.446-5.169,40.853l0.062,0.541l-0.196,0.509c-0.137,0.354-0.249,0.712-0.329,1.061
		c-17.212,80.233-79.974,86.472-98.799,86.472c-1.374,0-4.706-0.282-5.962-2.887l-1.728-3.623c-0.957-1.972-0.556-4.356,1.006-5.92
		c0.91-0.911,2.254-1.454,3.687-1.488c55.242-1.818,66.33-37.081,77.054-71.183c4.008-12.729,8.12-25.786,14.397-38.329
		c23.993-47.974,80.997-54.126,127.977-54.126c41.688,0,94.593,12.96,95.115,13.091c0.453,0.118,0.946,0.177,1.442,0.177h53.071
		c8.326,0,15.014-6.429,22.095-13.237c2.214-2.128,4.223-4.047,6.401-5.976l2.666-2.362l0.934,3.436
		c0.559,2.058,2.11,3.649,4.147,4.255c0.561,0.166,1.142,0.251,1.725,0.251c2.669,0,5.067-1.796,5.83-4.366
		c0.015-0.071,5.519-17.905,17.182-28.525l3.701-3.37v26.122c0,3.352,2.729,6.081,6.081,6.081c3.353,0,6.081-2.729,6.081-6.081
		v-7.555l2.992,1.129c11.918,4.497,17.92,12.876,19.947,16.271l0.295,0.493l0.018,0.575c0.372,12.366,4.093,20.254,7.151,24.696
		l0.678,0.985l-4.666,11.4c-1.549,3.798-5.041,6.491-9.111,7.026l-6.495,0.872c-1.486,0.195-2.836,0.928-3.812,2.066
		c-8.296,9.677-22.367,15.303-23.945,15.913c-1.497,0.546-2.667,1.576-3.368,2.926c-28.133,54.06-65.785,68.727-79.96,74.248
		c-4.782,1.862-6.769,2.697-8.16,4.791c-1.392,2.102-5.327,13.273-11.698,33.205l-2.174,6.8L324.212,295.783z"/>
	<path style="fill:#C4A87C;" d="M494.057,199.985l-4.213,10.295c-1.249,3.063-4.069,5.24-7.353,5.672l-6.501,0.873
		c-2.023,0.264-3.87,1.27-5.197,2.819c-8.369,9.763-22.964,15.247-23.097,15.302c-1.946,0.708-3.549,2.123-4.5,3.958
		c-27.741,53.304-64.836,67.766-78.8,73.205c-4.743,1.846-7.364,2.864-9.199,5.628c-0.608,0.918-2.256,3.384-11.962,33.756
		l-16.717-55.725c1.359-4.754,4.499-16.275,8.303-33.567c0.973-4.479-1.857-8.902-6.324-9.885c-4.479-0.984-8.902,1.857-9.886,6.324
		c-4.832,22.014-8.634,34.629-8.679,34.752c-0.354,1.194-0.442,2.443-0.254,3.67c-14.573,0.995-49.29,1.869-83.853-8.337
		c1.548-3.383,2.543-6.533,2.952-9.442c3.416-23.915-9.995-41.02-10.569-41.738c-2.853-3.56-8.028-4.123-11.598-1.305
		c-3.582,2.832-4.19,8.039-1.393,11.633c0.1,0.12,9.519,12.439,7.154,29.068c-2.3,16.076-42.159,52.065-60.712,66.207l-4.445-7.131
		l9.918-18.631c1.581-2.952,1.216-6.578-0.918-9.165c-27.896-33.867-20.754-72.886-17.116-78.702
		c2.477-3.848,1.36-8.978-2.488-11.453c-3.858-2.477-8.989-1.36-11.465,2.488c-4.135,6.445-7.763,22.677-5.506,42.302
		c-0.166,0.431-0.31,0.885-0.42,1.359c-16.872,78.645-78.236,84.759-96.645,84.759c-0.741,0-3.24-0.121-3.969-1.635l-1.726-3.617
		c-0.553-1.139-0.32-2.51,0.576-3.405c0.509-0.509,1.305-0.818,2.178-0.84c56.821-1.869,68.154-37.891,79.11-72.73
		c3.958-12.571,8.049-25.585,14.263-38.001c23.451-46.89,79.651-52.906,126-52.906c41.219,0,94.048,12.892,94.578,13.025
		c0.641,0.165,1.316,0.243,1.979,0.243h53.071c9.21,0,16.209-6.722,23.628-13.854c2.012-1.935,4.113-3.946,6.334-5.915
		c0.73,2.687,2.787,4.942,5.65,5.794c0.785,0.232,1.57,0.343,2.355,0.343c3.571,0,6.877-2.333,7.95-5.948
		c0.055-0.221,5.417-17.381,16.552-27.52v21.118c0,4.577,3.715,8.292,8.292,8.292s8.292-3.715,8.292-8.292v-4.356
		c11.311,4.268,16.961,12.206,18.829,15.335C486.903,186.983,490.806,195.265,494.057,199.985z"/>
</g>
</svg>